<svg xmlns="http://www.w3.org/2000/svg" version="1.1" xmlns:xlink="http://www.w3.org/1999/xlink" xmlns:svgjs="http://svgjs.dev/svgjs" width="1000" height="623" viewBox="0 0 1000 623"><g transform="matrix(1,0,0,1,-0.6060606060606233,0.2522267206477977)"><svg viewBox="0 0 396 247" data-background-color="#ffffff" preserveAspectRatio="xMidYMid meet" height="623" width="1000" xmlns="http://www.w3.org/2000/svg" xmlns:xlink="http://www.w3.org/1999/xlink"><g id="tight-bounds" transform="matrix(1,0,0,1,0.2400000000000091,-0.09999999999999432)"><svg viewBox="0 0 395.52 247.2" height="247.2" width="395.52"><g><svg></svg></g><g><svg viewBox="0 0 395.52 247.2" height="247.2" width="395.52"><g transform="matrix(1,0,0,1,75.54432000000001,53.617577427385896)"><svg viewBox="0 0 244.43135999999996 139.9648451452282" height="139.9648451452282" width="244.43135999999996"><g><svg viewBox="0 0 244.43135999999996 139.9648451452282" height="139.9648451452282" width="244.43135999999996"><g><svg viewBox="0 0 244.43136 139.96484514522822" height="139.9648451452282" width="244.43135999999996"><g><svg viewBox="0 0 244.43136 139.96484514522822" height="139.96484514522822" width="244.43136"><g id="textblocktransform"><svg viewBox="0 0 244.43136 139.96484514522822" height="139.96484514522822" width="244.43136" id="textblock"><g><svg viewBox="0 0 244.43136 139.96484514522822" height="139.96484514522822" width="244.43136"><g transform="matrix(1,0,0,1,0,0)"><svg width="244.43136" viewBox="0 -34.5 60.25 34.5" height="139.96484514522822" data-palette-color="#915eff"><path d="M12.7-34.5L19.95-34.5Q20.9-34.5 21.63-33.95 22.35-33.4 22.6-32.5L22.6-32.5 32.6 0 24.8 0 17.75-25.35Q17.55-26.2 17.35-27.08 17.15-27.95 17-28.75L17-28.75 15.65-28.75Q15.5-27.95 15.33-27.08 15.15-26.2 14.9-25.35L14.9-25.35 7.85 0 0 0 10.05-32.5Q10.3-33.4 11.03-33.95 11.75-34.5 12.7-34.5L12.7-34.5ZM7.35-14.85L25.25-14.85 25.25-9.1 7.35-9.1 7.35-14.85ZM52.3-34.5L60.25-34.5 48.6-10.95 41.4-10.95 29.7-34.5 37.65-34.5 43.45-21.8Q43.9-20.8 44.2-19.65 44.5-18.5 44.75-17.45L44.75-17.45 45.25-17.45Q45.55-18.5 45.85-19.65 46.15-20.8 46.55-21.8L46.55-21.8 52.3-34.5ZM41.15-15.6L48.8-15.6 48.8 0 41.15 0 41.15-15.6Z" opacity="1" transform="matrix(1,0,0,1,0,0)" fill="#915eff" class="wordmark-text-0" data-fill-palette-color="primary" id="text-0"></path></svg></g></svg></g></svg></g></svg></g></svg></g></svg></g></svg></g><g><path d="M245.816 0c68.262 0 123.6 55.338 123.6 123.6 0 68.262-55.338 123.6-123.6 123.6-34.584 0-65.851-14.204-88.285-37.096l9.076 0c20.868 19.119 48.676 30.785 79.209 30.785 64.777 0 117.289-52.512 117.289-117.289 0-64.777-52.512-117.289-117.289-117.289-30.533 0-58.34 11.667-79.209 30.785l-9.076 0c22.434-22.892 53.7-37.096 88.285-37.096z" fill="#915eff" stroke="transparent" data-fill-palette-color="tertiary"></path></g></svg></g><defs></defs></svg><rect width="395.52" height="247.2" fill="none" stroke="none" visibility="hidden"></rect></g></svg></g></svg>