<svg width="83" height="40" viewBox="0 0 83 40" fill="none" xmlns="http://www.w3.org/2000/svg">
<path d="M21.019 22.4739C20.0316 26.2504 16.5899 29.0456 12.5087 29.0456C9.06399 29.0456 6.07519 27.0545 4.63285 24.1629C4.47044 25.6082 4.20251 26.9064 3.80148 28.1602C5.95405 30.5105 9.0464 31.9865 12.4772 31.9865C16.2521 31.9865 19.6174 30.1996 21.7719 27.4272C21.358 25.922 21.1221 24.3271 21.019 22.4739Z" fill="#FFD549"/>
<path d="M22.5582 29.7017C20.0311 32.3867 16.4465 34.0657 12.4772 34.0657C8.80362 34.0657 5.45961 32.6277 2.97848 30.2851C2.60478 31.107 2.1653 31.9351 1.65194 32.7995C4.53265 35.1906 8.23044 36.6297 12.2581 36.6297C16.6906 36.6297 20.7237 34.8865 23.7077 32.0496C23.263 31.2509 22.8821 30.4767 22.5582 29.7017Z" fill="#178029"/>
<path d="M23.7076 7.95069C23.2043 8.85488 22.7827 9.7276 22.4329 10.6057C19.9133 7.99731 16.3813 6.37302 12.4772 6.37302C8.87126 6.37302 5.58287 7.75854 3.11641 10.0252C2.71421 9.10111 2.22993 8.17395 1.65202 7.20075C4.53271 4.80978 8.23048 3.3707 12.2581 3.3707C16.6906 3.3707 20.7236 5.11387 23.7076 7.95069Z" fill="#178029"/>
<path d="M24.8013 33.8717C21.4806 36.8775 17.0796 38.7105 12.2581 38.7105C7.82319 38.7105 3.74379 37.1596 0.533776 34.5715C0.466838 34.6723 0.398961 34.7738 0.330133 34.876C0.032739 35.3174 -0.0265201 36.2267 0.00934298 37.1585C0.072691 38.8044 1.70825 40 3.58386 40H22.2071C24.0829 40 25.7185 38.8042 25.7818 37.1582C25.8176 36.2265 25.7583 35.3173 25.4612 34.876C25.2307 34.5338 25.0109 34.1995 24.8013 33.8717Z" fill="#FA534A"/>
<path d="M24.8011 6.12865C21.4805 3.12317 17.0795 1.29032 12.2581 1.29032C7.82338 1.29032 3.74414 2.84124 0.534187 5.42913C0.467116 5.32811 0.399101 5.22642 0.330133 5.12402C0.0327249 4.68275 -0.0265259 3.7734 0.0093479 2.84154C0.0727112 1.19561 1.70828 0 3.58391 0H22.207C24.0828 0 25.7185 1.1958 25.7818 2.84185C25.8176 3.7736 25.7583 4.6828 25.4612 5.12402C25.2306 5.46633 25.0107 5.80072 24.8011 6.12865Z" fill="#FA534A"/>
<path d="M3.90337 12.1692C6.05112 9.88277 9.10029 8.45261 12.4772 8.45261C16.2015 8.45261 19.5273 10.1921 21.6848 12.9013C21.2954 14.4246 21.0817 16.0503 20.998 17.9485C19.9835 14.2118 16.5615 11.4557 12.5087 11.4557C9.09816 11.4557 6.13452 13.4073 4.67622 16.2525C4.53249 14.7673 4.28427 13.4411 3.90337 12.1692Z" fill="#FFD549"/>
<path d="M12.5087 26.9664C8.80621 26.9664 5.79415 23.9532 5.79415 20.2507C5.79415 16.5481 8.80621 13.5361 12.5087 13.5361C16.2113 13.5361 19.2233 16.5481 19.2233 20.2507C19.2233 23.9532 16.2113 26.9664 12.5087 26.9664Z" fill="#FA534A"/>
<path d="M82.3246 27.9231C82.3246 28.4398 82.2474 28.898 82.0929 29.2975C81.9384 29.6971 81.7253 30.0487 81.4536 30.3523C81.1872 30.6506 80.8729 30.9037 80.5107 31.1114C80.1484 31.3139 79.7596 31.4817 79.344 31.6149C78.9338 31.7427 78.5077 31.8386 78.0655 31.9025C77.6234 31.9611 77.1892 31.9931 76.763 31.9984V34.4933C76.763 34.9954 76.356 35.4025 75.8538 35.4025H73.9485C73.4464 35.4025 73.0393 34.9954 73.0393 34.4933C73.0393 34.2011 73.0393 33.9129 73.0393 33.6285C73.0446 33.0532 73.0473 32.4832 73.0473 31.9185C73.0526 31.3485 73.0553 30.7758 73.0553 30.2005C73.0606 29.6251 73.0659 29.0312 73.0713 28.4185C73.0819 27.7686 73.0846 27.1187 73.0793 26.4688C73.0757 26.0307 73.0805 25.5903 73.0939 25.1474C73.1055 24.7613 73.3665 24.4268 73.7411 24.3325C74.2157 24.213 74.6903 24.118 75.1649 24.0476C75.8467 23.9464 76.5499 23.8958 77.2744 23.8958C77.6846 23.8958 78.0948 23.9304 78.505 23.9996C78.9152 24.0636 79.3067 24.1674 79.6797 24.3113C80.0579 24.4551 80.4068 24.6362 80.7264 24.8546C81.0514 25.0677 81.3311 25.3234 81.5655 25.6218C81.7999 25.9201 81.9837 26.261 82.1168 26.6446C82.2553 27.0281 82.3246 27.4543 82.3246 27.9231ZM78.7767 28.1948C78.7767 27.8485 78.6701 27.5795 78.4571 27.3877C78.2493 27.1906 77.9776 27.0921 77.642 27.0921C77.5301 27.0921 77.4129 27.1027 77.2904 27.124C77.1732 27.14 77.0613 27.1613 76.9548 27.188L76.8589 29.5213C76.9335 29.5319 77.0054 29.5372 77.0747 29.5372C77.1439 29.5372 77.2158 29.5372 77.2904 29.5372C77.4822 29.5372 77.666 29.5053 77.8418 29.4414C78.0229 29.3774 78.1827 29.2869 78.3212 29.1697C78.4597 29.0471 78.5689 28.906 78.6488 28.7462C78.7341 28.581 78.7767 28.3972 78.7767 28.1948Z" fill="#080808"/>
<path d="M72.4557 27.5871C72.4557 28.0026 72.4184 28.3808 72.3439 28.7217C72.2746 29.0574 72.1627 29.3663 72.0083 29.6487C71.8538 29.931 71.654 30.1921 71.4089 30.4318C71.1639 30.6715 70.8682 30.9006 70.522 31.119L71.8085 33.411C72.1117 33.951 71.798 34.6295 71.1902 34.7483L69.5926 35.0607C69.1525 35.1468 68.7155 34.8992 68.563 34.4776L67.5973 31.8062L66.6065 31.8382L66.5003 34.2925C66.4792 34.7788 66.0788 35.1623 65.592 35.1623H63.9559C63.446 35.1623 63.0359 34.743 63.0465 34.2332C63.0653 33.3307 63.0827 32.4311 63.0985 31.5345C63.1252 30.3306 63.1545 29.1213 63.1864 27.9067C63.1971 27.2941 63.2077 26.6868 63.2184 26.0848C63.2256 25.6789 63.2376 25.2706 63.2545 24.8599C63.2694 24.4974 63.5014 24.1775 63.8479 24.0699C64.0282 24.0139 64.2073 23.9637 64.385 23.9193C64.7473 23.8287 65.1095 23.7595 65.4718 23.7115C65.8394 23.6583 66.2096 23.6236 66.5825 23.6076C66.9607 23.5863 67.347 23.5757 67.7412 23.5757C68.3485 23.5757 68.9345 23.6609 69.4991 23.8314C70.0692 23.9965 70.5726 24.2469 71.0094 24.5825C71.4462 24.9181 71.7952 25.3363 72.0562 25.8371C72.3226 26.3378 72.4557 26.9212 72.4557 27.5871ZM68.8759 27.8428C68.8759 27.619 68.8439 27.4139 68.78 27.2275C68.7214 27.041 68.6308 26.8812 68.5083 26.748C68.3911 26.6095 68.2419 26.503 68.0608 26.4284C67.885 26.3485 67.6772 26.3085 67.4375 26.3085C67.331 26.3085 67.2271 26.3165 67.1259 26.3325C67.0247 26.3432 66.9261 26.3618 66.8302 26.3884L66.7024 29.361H66.8942C67.1232 29.361 67.355 29.3317 67.5894 29.2731C67.8291 29.2145 68.0422 29.124 68.2286 29.0014C68.4204 28.8789 68.5749 28.7217 68.6921 28.53C68.8146 28.3382 68.8759 28.1091 68.8759 27.8428Z" fill="#080808"/>
<path d="M62.6294 33.5842C62.7846 34.1198 62.4255 34.6675 61.8725 34.7389L59.7518 35.0125C59.2994 35.0709 58.8738 34.785 58.7567 34.3441L58.4818 33.3086H56.6599L56.4345 34.3274C56.3351 34.7766 55.9159 35.0808 55.4581 35.0359L53.2834 34.8227C52.7142 34.7669 52.3373 34.2056 52.501 33.6576L55.1815 24.6867C55.2917 24.3178 55.6224 24.0583 56.0069 24.039L59.0896 23.8837C59.5107 23.8625 59.8912 24.1337 60.0085 24.5387L62.6294 33.5842ZM58.1941 30.8634L57.5868 28.0827L56.9955 30.8634H58.1941Z" fill="#080808"/>
<path d="M52.0665 34.0839C52.078 34.5772 51.694 34.9897 51.2011 35.0133L49.0356 35.1173C48.5204 35.142 48.0878 34.7336 48.0829 34.2177L48.0599 31.7904H46.222L46.1383 34.4103C46.1226 34.9008 45.7204 35.2904 45.2296 35.2904H43.4644C42.9526 35.2904 42.5417 34.8682 42.5555 34.3567L42.8089 24.9818C42.8226 24.473 43.2513 24.0747 43.7597 24.0982L45.7333 24.1894C46.2334 24.2125 46.6206 24.6354 46.5997 25.1355L46.3978 29.9685H48.1718L48.1853 24.8904C48.1866 24.3799 48.608 23.9705 49.1184 23.984L50.9668 24.0326C51.4512 24.0454 51.8405 24.4358 51.8518 24.9202L52.0665 34.0839Z" fill="#080808"/>
<path d="M42.0816 31.1993C42.0816 31.9291 41.9538 32.5604 41.6981 33.0931C41.4477 33.6205 41.1014 34.0573 40.6593 34.4036C40.2224 34.7445 39.7084 34.9975 39.117 35.1627C38.531 35.3225 37.8998 35.4024 37.2232 35.4024C36.9622 35.4024 36.6745 35.3678 36.3602 35.2985C36.0512 35.2293 35.7369 35.144 35.4173 35.0428C35.0977 34.9363 34.7887 34.8244 34.4904 34.7072C34.4271 34.6807 34.3653 34.6547 34.305 34.6289C33.9456 34.4757 33.7366 34.1019 33.7802 33.7137L33.901 32.6375C33.9749 31.9796 34.718 31.6065 35.3523 31.796C35.4211 31.8165 35.4907 31.836 35.5611 31.8545C36.1152 31.993 36.6585 32.0623 37.1913 32.0623C37.2925 32.0623 37.415 32.0596 37.5588 32.0543C37.7027 32.0436 37.8385 32.0196 37.9664 31.9824C38.0995 31.9397 38.2114 31.8785 38.302 31.7986C38.3925 31.7187 38.4378 31.6041 38.4378 31.455C38.4378 31.3537 38.4059 31.2685 38.3419 31.1993C38.278 31.1247 38.1954 31.0661 38.0942 31.0235C37.993 30.9755 37.8785 30.9409 37.7506 30.9196C37.6228 30.8929 37.4976 30.8743 37.375 30.8636C37.2525 30.853 37.138 30.8477 37.0314 30.8477C36.9249 30.8477 36.8397 30.8477 36.7757 30.8477C36.3176 30.8477 35.8994 30.7757 35.5212 30.6319C35.1483 30.4881 34.826 30.2856 34.5543 30.0246C34.2879 29.7582 34.0802 29.4386 33.931 29.0657C33.7819 28.6875 33.7073 28.2693 33.7073 27.8112C33.7073 27.1826 33.8325 26.6205 34.0828 26.1251C34.3385 25.6243 34.6768 25.2008 35.0977 24.8546C35.5238 24.503 36.0113 24.234 36.56 24.0475C37.1087 23.861 37.676 23.7678 38.262 23.7678C38.5231 23.7678 38.7921 23.7785 39.0691 23.7998C39.3461 23.8158 39.6205 23.8477 39.8921 23.8957C40.1692 23.9436 40.4382 24.0049 40.6992 24.0795C40.7509 24.0942 40.802 24.1097 40.8526 24.1259C41.2157 24.2423 41.4187 24.6114 41.3832 24.991L41.2459 26.4584C41.1912 27.0428 40.6037 27.4233 40.0285 27.3063C40.0177 27.3041 40.0069 27.3019 39.996 27.2997C39.6018 27.2145 39.2156 27.1719 38.8374 27.1719C38.7681 27.1719 38.6775 27.1746 38.5657 27.1799C38.4591 27.1799 38.3446 27.1879 38.2221 27.2039C38.1049 27.2145 37.985 27.2332 37.8625 27.2598C37.74 27.2864 37.6308 27.3237 37.5349 27.3717C37.439 27.4143 37.3617 27.4729 37.3031 27.5475C37.2445 27.622 37.2179 27.7099 37.2232 27.8112C37.2285 27.9284 37.2712 28.0189 37.3511 28.0828C37.4363 28.1468 37.5429 28.1947 37.6707 28.2267C37.8039 28.2533 37.9477 28.2666 38.1022 28.2666C38.262 28.2666 38.4192 28.264 38.5737 28.2586C38.7282 28.248 38.872 28.24 39.0052 28.2347C39.1383 28.224 39.2476 28.2214 39.3328 28.2267C39.759 28.2533 40.1425 28.3439 40.4835 28.4984C40.8244 28.6529 41.1121 28.858 41.3465 29.1137C41.5862 29.3694 41.7673 29.6757 41.8898 30.0326C42.0177 30.3842 42.0816 30.7731 42.0816 31.1993Z" fill="#080808"/>
<path d="M81.1644 6.52816C81.8174 6.69005 82.0745 7.48046 81.6417 7.99551L77.7125 12.6714L81.517 19.1185C81.8395 19.665 81.5171 20.3654 80.8923 20.4758L77.6289 21.0525C77.2889 21.1126 76.9442 20.9749 76.7391 20.697L73.7262 16.6137L73.5842 20.0912C73.5649 20.5651 73.1846 20.9444 72.7108 20.9627L69.9345 21.0694C69.411 21.0896 68.9789 20.6643 68.9906 20.1406L69.3004 6.27722C69.3119 5.76333 69.7467 5.36114 70.26 5.38977L73.5162 5.57145C74.0287 5.60005 74.416 6.04699 74.3713 6.55835L74.0565 10.1607L76.8927 6.0727C77.1078 5.76261 77.4922 5.61768 77.8585 5.7085L81.1644 6.52816Z" fill="#080808"/>
<path d="M67.5281 15.2704C68.064 15.2704 68.4837 15.7316 68.4332 16.2652L68.1368 19.3987C68.0952 19.8386 67.7433 20.1849 67.3027 20.2195L59.7952 20.8079C59.2587 20.85 58.8032 20.4193 58.8153 19.8812L59.1252 6.05018C59.1363 5.55612 59.54 5.16138 60.0341 5.16138H63.8254C64.3779 5.16138 64.8027 5.65003 64.7258 6.19711L63.4503 15.2704H67.5281Z" fill="#080808"/>
<path d="M57.1335 19.1404C57.2887 19.6759 56.9297 20.2237 56.3766 20.2951L52.7574 20.7621C52.305 20.8204 51.8794 20.5345 51.7623 20.0937L51.3061 18.3754H48.7954L48.4189 20.077C48.3195 20.5261 47.9003 20.8303 47.4425 20.7854L43.727 20.4212C43.1578 20.3654 42.7809 19.8041 42.9446 19.256L46.8275 6.26092C46.9378 5.89202 47.2684 5.63255 47.6529 5.61319L52.4154 5.37335C52.8366 5.35214 53.217 5.62332 53.3344 6.02835L57.1335 19.1404ZM50.9097 15.0057L50.0728 11.1735L49.2579 15.0057H50.9097Z" fill="#080808"/>
<path d="M44.7361 5.36133C45.2473 5.36039 45.6587 5.78091 45.6467 6.29194L45.5787 9.17602C45.5674 9.6555 45.1855 10.0437 44.7063 10.063L42.277 10.1609L39.2626 19.9523C39.0996 20.4814 38.6107 20.8425 38.057 20.8425C37.3594 20.8425 36.7942 20.2761 36.7957 19.5785L36.815 10.4031L34.5161 10.5265C33.9864 10.555 33.545 10.1258 33.5585 9.59557L33.6431 6.26609C33.6556 5.77377 34.0578 5.38092 34.5503 5.38002L44.7361 5.36133Z" fill="#080808"/>
</svg>
